<svg width="1220" height="100%" viewBox="0 0 1220 369" fill="none"
  xmlns="http://www.w3.org/2000/svg">
  <rect width="1220" height="100%" fill="#006eb7"/>
  <mask id="mask0" mask-type="alpha" maskUnits="userSpaceOnUse" x="441" y="1" width="779" height="368">
    <path d="M441 11C441 5.47716 445.477 1 451 1H1210C1215.52 1 1220 5.47715 1220 11V369H441V11Z" fill="white" fill-opacity="0.27"/>
  </mask>
  <g mask="url(#mask0)">
    <path fill-rule="evenodd" clip-rule="evenodd" d="M803.122 -1028.66L451.725 -720.418L312.575 -598.357L302.887 -589.859C294.961 -582.906 294.965 -572.087 302.896 -565.13C310.827 -558.173 323.16 -558.17 331.086 -565.123L340.774 -573.621L391.854 -618.428C399.781 -625.381 412.114 -625.378 420.045 -618.421C427.976 -611.464 427.98 -600.645 420.053 -593.692L405.082 -580.559L359.285 -540.387L333.745 -517.983L295.875 -484.764C287.949 -477.811 287.953 -466.992 295.884 -460.036C303.815 -453.078 316.148 -453.075 324.074 -460.028L361.944 -493.247L387.484 -515.651L433.281 -555.823L472.031 -589.815L500.213 -614.536C508.14 -621.489 520.473 -621.486 528.404 -614.529C536.335 -607.572 536.339 -596.753 528.412 -589.8L465.883 -534.95L425.371 -499.413L426.252 -498.64C423.61 -497.868 421.848 -496.323 420.087 -494.778L391.905 -470.056C383.978 -463.104 383.982 -452.285 391.913 -445.328C399.844 -438.371 412.178 -438.367 420.104 -445.32L448.286 -470.042C450.047 -471.587 451.809 -473.132 452.689 -475.45L453.57 -474.677L486.156 -503.261C494.082 -510.214 506.416 -510.21 514.347 -503.253C522.278 -496.296 522.281 -485.478 514.355 -478.525L508.19 -473.117L494.099 -460.756C486.173 -453.804 486.176 -442.985 494.107 -436.028C502.038 -429.071 514.372 -429.068 522.298 -436.02L536.389 -448.381L542.554 -453.789L602.441 -506.321C610.368 -513.274 622.701 -513.271 630.632 -506.314C638.563 -499.357 638.567 -488.538 630.64 -481.585L504.701 -371.112C496.775 -364.159 496.778 -353.341 504.709 -346.384C512.64 -339.427 524.974 -339.423 532.9 -346.376L566.366 -375.733L570.77 -379.595C578.696 -386.548 591.03 -386.545 598.961 -379.588C606.892 -372.631 606.895 -361.812 598.969 -354.859L594.566 -350.997L585.759 -343.271C577.832 -336.318 577.836 -325.5 585.767 -318.543C593.698 -311.586 606.031 -311.582 613.958 -318.535L622.765 -326.261L697.624 -391.927C705.55 -398.879 717.883 -398.876 725.814 -391.919C733.745 -384.962 733.749 -374.143 725.823 -367.191L714.374 -357.148L668.578 -316.975L650.964 -301.525L627.185 -280.666C619.259 -273.713 619.262 -262.894 627.193 -255.938C635.124 -248.98 647.458 -248.977 655.384 -255.93L679.163 -276.789L696.777 -292.239L742.573 -332.412L782.204 -367.176C790.13 -374.129 802.464 -374.125 810.395 -367.168C818.326 -360.211 818.329 -349.393 810.403 -342.44L804.238 -337.032L733.783 -275.229L714.407 -258.233C706.481 -251.28 706.485 -240.461 714.416 -233.504C722.347 -226.547 734.68 -226.544 742.606 -233.497L761.982 -250.493L798.971 -282.939C806.897 -289.892 819.231 -289.889 827.162 -282.932C835.093 -275.975 835.096 -265.156 827.17 -258.203L807.795 -241.208L806.033 -239.662L804.272 -238.117C796.346 -231.165 796.349 -220.346 804.28 -213.389C812.211 -206.432 824.545 -206.429 832.471 -213.381L834.232 -214.926L835.994 -216.472L877.386 -252.781C885.313 -259.734 897.646 -259.731 905.577 -252.774C913.508 -245.817 913.512 -234.998 905.586 -228.045L865.074 -192.508L820.158 -153.109L786.692 -123.752C778.765 -116.799 778.769 -105.98 786.7 -99.0234C794.631 -92.0664 806.964 -92.0632 814.891 -99.016L848.357 -128.372L893.273 -167.772L911.767 -183.995C919.693 -190.948 932.027 -190.945 939.958 -183.988C947.889 -177.031 947.893 -166.212 939.966 -159.259L935.563 -155.397L889.767 -115.225L876.556 -103.636L814.027 -48.7862C806.101 -41.8333 806.104 -31.0145 814.035 -24.0575C821.966 -17.1005 834.3 -17.0973 842.226 -24.0502L904.755 -78.9005L917.966 -90.4886L963.762 -130.661L990.183 -153.837L997.228 -160.017C1005.15 -166.97 1017.49 -166.967 1025.42 -160.01C1033.35 -153.053 1033.35 -142.234 1025.43 -135.281L984.035 -98.9717L968.182 -85.066L954.972 -73.4779C947.045 -66.5251 947.049 -55.7063 954.98 -48.7493C962.911 -41.7923 975.245 -41.7891 983.171 -48.7419L996.381 -60.33L997.262 -61.1026C1005.19 -68.0554 1017.52 -68.0522 1025.45 -61.0952C1033.38 -54.1382 1033.39 -43.3194 1025.46 -36.3665L979.665 3.80554L971.739 10.7584L962.051 19.2563C954.125 26.2092 954.128 37.028 962.059 43.985C969.99 50.942 982.324 50.9452 990.25 43.9923L999.938 35.4944L1007.86 28.5415L1053.66 -11.6305L1092.41 -45.6223C1100.34 -52.5751 1112.67 -52.5719 1120.6 -45.6149C1128.53 -38.6579 1128.54 -27.8391 1120.61 -20.8862L1045.75 44.7797C1037.82 51.7325 1037.83 62.5513 1045.76 69.5083C1053.69 76.4653 1066.02 76.4685 1073.95 69.5157L1078.35 65.653C1086.28 58.7002 1098.61 58.7034 1106.54 65.6604C1114.47 72.6173 1114.48 83.4362 1106.55 90.389L1102.15 94.2517L1069.56 122.836C1061.64 129.789 1061.64 140.607 1069.57 147.564C1077.5 154.521 1089.84 154.525 1097.76 147.572L1130.35 118.988L1181.43 74.1804L1194.64 62.5924C1202.56 55.6395 1214.9 55.6427 1222.83 62.5997C1230.76 69.5568 1230.76 80.3755 1222.84 87.3284L1174.4 129.818L1159.43 142.951L1144.46 156.084C1136.53 163.037 1136.53 173.856 1144.46 180.813C1152.4 187.77 1164.73 187.773 1172.65 180.82L1187.63 167.687L1202.6 154.554L1220.21 139.103C1228.14 132.15 1240.47 132.154 1248.4 139.111C1256.32 146.054 1256.34 156.843 1248.46 163.798L1705.49 -237.109L803.122 -1028.66ZM446.465 -643.143C438.534 -650.1 438.531 -660.918 446.457 -667.871C454.383 -674.824 466.717 -674.821 474.647 -667.864C482.578 -660.907 482.582 -650.088 474.656 -643.135C466.73 -636.182 453.515 -636.959 446.465 -643.143ZM532.806 -623.028C524.875 -629.985 524.871 -640.804 532.798 -647.757C540.724 -654.71 553.057 -654.706 560.988 -647.749C568.919 -640.792 568.923 -629.973 560.997 -623.021C553.07 -616.068 540.737 -616.071 532.806 -623.028ZM547.819 -515.609C539.893 -508.656 527.559 -508.659 519.628 -515.616C511.697 -522.573 511.693 -533.392 519.62 -540.345L538.114 -556.568C546.041 -563.521 558.374 -563.518 566.305 -556.561C574.236 -549.604 574.24 -538.785 566.313 -531.832L547.819 -515.609ZM610.406 -400.45C602.475 -407.407 602.471 -418.226 610.398 -425.179C618.324 -432.131 630.657 -432.128 638.588 -425.171C646.519 -418.214 646.523 -407.395 638.597 -400.443C630.67 -393.49 617.456 -394.266 610.406 -400.45ZM731.974 -411.237C724.044 -418.194 724.04 -429.013 731.966 -435.966C739.892 -442.918 752.226 -442.915 760.157 -435.958C768.088 -429.001 768.091 -418.182 760.165 -411.229C752.239 -404.277 739.906 -404.28 731.974 -411.237ZM901.167 -269.003C893.236 -275.96 893.232 -286.779 901.158 -293.732C909.085 -300.684 921.418 -300.681 929.349 -293.724C937.28 -286.767 937.284 -275.948 929.357 -268.995C921.431 -262.043 908.217 -262.819 901.167 -269.003ZM1035.13 -97.4128C1027.2 -104.37 1027.2 -115.189 1035.12 -122.141C1043.05 -129.094 1055.38 -129.091 1063.31 -122.134C1071.24 -115.177 1071.25 -104.358 1063.32 -97.4055C1055.4 -90.4526 1043.06 -90.4558 1035.13 -97.4128ZM1147.9 -75.7458C1139.97 -68.793 1127.64 -68.7961 1119.71 -75.7532C1111.78 -82.7101 1111.78 -93.5289 1119.7 -100.482L1120.58 -101.254L1137.32 -115.933C1145.24 -122.885 1157.58 -122.882 1165.51 -115.925C1173.44 -108.968 1173.44 -98.1495 1165.51 -91.1966L1147.9 -75.7458ZM1112.7 27.7963C1104.77 20.8392 1104.76 10.0205 1112.69 3.06763C1120.62 -3.88525 1132.95 -3.88208 1140.88 3.07495C1148.81 10.032 1148.81 20.8507 1140.89 27.8036C1132.96 34.7565 1120.63 34.7533 1112.7 27.7963ZM1239.55 13.9196C1231.62 6.96252 1231.62 -3.8562 1239.54 -10.8091C1247.47 -17.762 1259.8 -17.7587 1267.73 -10.8018C1275.66 -3.84473 1275.67 6.97412 1267.74 13.927C1259.82 20.8798 1246.6 20.1035 1239.55 13.9196ZM251.807 -545.051C259.733 -552.004 272.067 -552.001 279.998 -545.044C287.048 -538.86 287.051 -528.041 280.006 -520.315L242.136 -487.096C234.21 -480.143 221.877 -480.146 213.946 -487.103C206.015 -494.06 206.011 -504.879 213.937 -511.832L251.807 -545.051ZM740.008 -104.448C747.934 -111.4 760.267 -111.397 768.198 -104.44C776.129 -97.4832 776.133 -86.6644 768.207 -79.7115L730.337 -46.4924C722.411 -39.5395 710.077 -39.5427 702.146 -46.4998C694.215 -53.4567 694.212 -64.2756 702.138 -71.2284L740.008 -104.448ZM383.105 -442.239C375.174 -449.196 362.841 -449.199 354.914 -442.246L317.044 -409.027C309.118 -402.074 309.122 -391.255 317.053 -384.298C324.984 -377.341 337.317 -377.338 345.244 -384.291L383.113 -417.51C390.158 -425.236 390.155 -436.055 383.105 -442.239ZM457.14 -338.672C465.067 -345.625 477.4 -345.621 485.331 -338.664C492.381 -332.48 492.384 -321.661 485.339 -313.936L463.322 -294.622C455.396 -287.669 443.062 -287.673 435.131 -294.63C427.2 -301.587 427.197 -312.405 435.123 -319.358L457.14 -338.672ZM799.969 60.9424C792.038 53.9854 779.705 53.9821 771.778 60.9349L749.761 80.2484C741.835 87.2012 741.839 98.02 749.77 104.977C757.701 111.934 770.034 111.937 777.96 104.984L799.978 85.671C807.904 78.7181 807.9 67.8994 799.969 60.9424ZM967.424 275.816C975.35 268.863 987.684 268.866 995.615 275.823C1003.55 282.781 1003.55 293.599 995.623 300.552L973.606 319.866C965.68 326.818 953.346 326.815 945.415 319.858C937.484 312.901 937.48 302.082 945.407 295.13L967.424 275.816ZM275.627 -445.356C267.696 -452.313 255.362 -452.316 247.436 -445.363C239.51 -438.41 239.514 -427.592 247.445 -420.635C255.376 -413.678 267.709 -413.674 275.635 -420.627C283.561 -427.58 283.558 -438.399 275.627 -445.356ZM385.804 -276.094C393.73 -283.047 406.064 -283.044 413.995 -276.087C421.045 -269.903 421.929 -258.311 414.003 -251.358C406.077 -244.405 393.743 -244.409 385.812 -251.366C377.882 -258.323 377.878 -269.141 385.804 -276.094ZM684.532 -31.0446C676.601 -38.0016 664.268 -38.0048 656.342 -31.052C648.416 -24.0991 648.419 -13.2804 656.35 -6.32336C664.281 0.633667 676.615 0.636963 684.541 -6.31592C692.467 -13.2688 692.463 -24.0876 684.532 -31.0446ZM903.034 41.6533C910.961 34.7004 923.294 34.7037 931.225 41.6608C939.156 48.6177 939.16 59.4365 931.234 66.3894C923.307 73.3422 910.974 73.339 903.043 66.382C895.112 59.4249 895.108 48.6062 903.034 41.6533ZM967.4 203.181C959.469 196.224 947.135 196.221 939.209 203.174C931.283 210.127 931.286 220.945 939.217 227.902C947.148 234.859 959.482 234.863 967.408 227.91C975.334 220.957 975.331 210.138 967.4 203.181ZM726.764 -188.679C734.691 -195.632 747.024 -195.629 754.955 -188.672C762.005 -182.488 762.009 -171.669 754.964 -163.943L674.82 -93.6418C666.894 -86.689 654.561 -86.6923 646.63 -93.6493C638.699 -100.606 638.695 -111.425 646.621 -118.378L726.764 -188.679ZM1105.7 179.258C1097.77 172.301 1085.44 172.298 1077.51 179.251L1006.17 241.826C998.248 248.779 998.252 259.598 1006.18 266.555C1014.11 273.512 1026.45 273.515 1034.37 266.562L1105.71 203.987C1113.64 197.034 1113.63 186.215 1105.7 179.258ZM443.897 -424.447C451.823 -431.4 464.157 -431.396 472.088 -424.44C480.019 -417.482 480.022 -406.664 472.096 -399.711L390.191 -327.865C382.265 -320.912 369.932 -320.915 362.001 -327.872C354.07 -334.829 354.066 -345.648 361.992 -352.601L443.897 -424.447ZM561.104 -309.278C553.173 -316.235 540.839 -316.238 532.913 -309.285L514.418 -293.062C506.492 -286.109 506.496 -275.29 514.427 -268.333C522.358 -261.376 534.691 -261.373 542.617 -268.326L561.112 -284.549C569.038 -291.502 569.035 -302.321 561.104 -309.278ZM658.918 -226.568C666.844 -233.52 679.178 -233.517 687.109 -226.56C695.04 -219.603 695.043 -208.784 687.998 -202.604L674.787 -191.016C666.861 -184.063 654.528 -184.066 646.597 -191.023C638.666 -197.98 638.662 -208.799 646.588 -215.752L658.918 -226.568ZM1010.52 69.4968C1002.59 62.5398 990.257 62.5365 982.33 69.4894L965.597 84.1676C957.671 91.1205 957.675 101.939 965.606 108.896C973.537 115.853 985.87 115.857 993.796 108.904L1010.53 94.2255C1018.46 87.2726 1018.45 76.4539 1010.52 69.4968ZM1032.58 170.738L1014.08 186.961C1006.16 193.914 993.825 193.911 985.894 186.954C977.963 179.997 977.959 169.178 985.886 162.225L1004.38 146.002C1012.31 139.049 1024.64 139.052 1032.57 146.01C1040.5 152.966 1040.51 163.785 1032.58 170.738ZM849.297 42.4131C841.37 49.366 829.037 49.3628 821.106 42.4058C813.175 35.4487 813.171 24.6298 821.097 17.6769L895.076 -47.2164C903.002 -54.1692 915.335 -54.1659 923.266 -47.2089C931.197 -40.2518 931.201 -29.433 923.275 -22.4802L849.297 42.4131Z" fill="url(#paint0_linear)" fill-opacity="0.27"/>
  </g>
  <defs>
    <linearGradient id="paint0_linear" x1="957" y1="48.9999" x2="956.744" y2="325.078" gradientUnits="userSpaceOnUse">
      <stop stop-color="white"/>
      <stop offset="1" stop-color="white" stop-opacity="0"/>
    </linearGradient>
  </defs>
</svg>
