<svg width="1025px" height="999px" viewBox="0 0 1025 999" version="1.1"
  xmlns="http://www.w3.org/2000/svg"
  xmlns:xlink="http://www.w3.org/1999/xlink">
  <defs>
    <polygon id="path-1" points="1.8189894e-12 0.906376801 2442.99756 0.906376801 2442.99756 1599.92145 1.8189894e-12 1599.92145"></polygon>
  </defs>
  <g id="login" stroke="none" stroke-width="1" fill="none" fill-rule="evenodd" opacity="0.0753813244">
    <g id="Pre-Cognito-login" transform="translate(-255.000000, 0.000000)">
      <g id="ooze" transform="translate(1311.149637, 1.149637) rotate(45.000000) translate(-1311.149637, -1.149637) translate(89.149637, -964.850363)">
        <path d="M1374.9097,1548.65717 L1374.9097,1653.18381 C1374.9097,1674.28497 1392.13857,1691.42049 1413.4097,1691.42049 C1434.65618,1691.42049 1451.9097,1674.28497 1451.9097,1653.18381 L1451.9097,1548.65717 C1451.9097,1527.556 1434.65618,1510.42049 1413.4097,1510.42049 C1392.13857,1510.42049 1374.9097,1527.556 1374.9097,1548.65717 Z" id="Fill-3" fill="#EFEFF4"></path>
        <path d="M610.173717,1568.54318 L610.173717,1628.34805 C610.173717,1649.37245 627.402591,1666.44562 648.673717,1666.44562 C669.944844,1666.44562 687.173717,1649.37245 687.173717,1628.34805 L687.173717,1568.54318 C687.173717,1547.4944 669.944844,1530.44562 648.673717,1530.44562 C627.402591,1530.44562 610.173717,1547.4944 610.173717,1568.54318 Z" id="Fill-7" fill="#EFEFF4"></path>
        <path d="M1677.90496,1767.95412 L1677.90496,1827.76973 C1677.90496,1848.79789 1695.15848,1865.84973 1716.40496,1865.84973 C1737.65144,1865.84973 1754.90496,1848.79789 1754.90496,1827.76973 L1754.90496,1767.95412 C1754.90496,1746.92596 1737.65144,1729.84973 1716.40496,1729.84973 C1695.15848,1729.84973 1677.90496,1746.92596 1677.90496,1767.95412 Z" id="Fill-9" fill="#EFEFF4"></path>
        <path d="M611.234378,1767.78537 C611.234378,1789.04969 628.463251,1806.29769 649.734378,1806.29769 C671.005504,1806.29769 688.234378,1789.04969 688.234378,1767.78537 C688.234378,1746.52105 671.005504,1729.29769 649.734378,1729.29769 C628.463251,1729.29769 611.234378,1746.52105 611.234378,1767.78537 Z" id="Fill-16" fill="#EFEFF4"></path>
        <path d="M1374.9097,1780.52561 C1374.9097,1801.79674 1392.13857,1819.02561 1413.4097,1819.02561 C1434.65618,1819.02561 1451.9097,1801.79674 1451.9097,1780.52561 C1451.9097,1759.25449 1434.65618,1742.02561 1413.4097,1742.02561 C1392.13857,1742.02561 1374.9097,1759.25449 1374.9097,1780.52561 Z" id="Fill-18" fill="#EFEFF4"></path>
        <path d="M1220.05332,1430.4171 L1220.05332,1651.21572 C1220.05332,1672.26623 1237.30684,1689.31641 1258.55332,1689.31641 C1279.82444,1689.31641 1297.05332,1672.26623 1297.05332,1651.21572 L1297.05332,1430.4171 C1297.05332,1409.39099 1279.82444,1392.31641 1258.55332,1392.31641 C1237.30684,1392.31641 1220.05332,1409.39099 1220.05332,1430.4171 Z" id="Fill-24" fill="#EFEFF4"></path>
        <path d="M459.20642,1454.13131 L459.20642,1681.21734 C459.20642,1702.18174 476.435293,1719.18647 497.70642,1719.18647 C518.977546,1719.18647 536.20642,1702.18174 536.20642,1681.21734 L536.20642,1454.13131 C536.20642,1433.16691 518.977546,1416.18647 497.70642,1416.18647 C476.435293,1416.18647 459.20642,1433.16691 459.20642,1454.13131 Z" id="Fill-28" fill="#EFEFF4"></path>
        <path d="M761.141015,1512.59761 L761.141015,1564.79258 C761.141015,1586.00984 778.369889,1603.19509 799.641015,1603.19509 C820.912142,1603.19509 838.141015,1586.00984 838.141015,1564.79258 L838.141015,1512.59761 C838.141015,1491.38034 820.912142,1474.19509 799.641015,1474.19509 C778.369889,1474.19509 761.141015,1491.38034 761.141015,1512.59761 Z" id="Fill-30" fill="#EFEFF4"></path>
        <path d="M1070.14668,1467.81868 L1070.14668,1503.50549 C1070.14668,1524.86314 1087.37555,1542.16208 1108.64668,1542.16208 C1129.91781,1542.16208 1147.14668,1524.86314 1147.14668,1503.50549 L1147.14668,1467.81868 C1147.14668,1446.46103 1129.91781,1429.16208 1108.64668,1429.16208 C1087.37555,1429.16208 1070.14668,1446.46103 1070.14668,1467.81868 Z" id="Fill-32" fill="#EFEFF4"></path>
        <g id="Group-40" transform="translate(0.283764, 0.682720)">
          <mask id="mask-2" fill="white">
            <use xlink:href="#path-1"></use>
          </mask>
          <g id="Clip-39"></g>
          <path d="M2251.73509,1041.84006 C2230.67643,1041.84006 2213.57543,1024.75917 2213.57543,1003.72528 C2213.57543,982.666985 2230.67643,965.586097 2251.73509,965.586097 C2272.79375,965.586097 2289.89475,982.666985 2289.89475,1003.72528 C2289.89475,1024.75917 2272.79375,1041.84006 2251.73509,1041.84006 Z M2099.07202,1241.49123 C2078.01336,1241.49123 2060.88793,1224.41034 2060.88793,1203.37645 C2060.88793,1182.31816 2078.01336,1165.26167 2099.07202,1165.26167 C2120.15511,1165.26167 2137.23168,1182.31816 2137.23168,1203.37645 C2137.23168,1224.41034 2120.15511,1241.49123 2099.07202,1241.49123 Z M1984.56861,1029.1758 C1984.56861,1050.2341 1967.49204,1067.29058 1946.43338,1067.29058 C1925.35029,1067.29058 1908.24929,1050.2341 1908.24929,1029.1758 L1908.24929,1025.61322 L1908.24929,978.250355 C1908.24929,957.192061 1925.35029,940.135575 1946.43338,940.135575 C1967.49204,940.135575 1984.56861,957.192061 1984.56861,978.250355 L1984.56861,1029.1758 Z M1793.74588,1151.27974 C1772.68722,1151.27974 1755.58622,1134.22326 1755.58622,1113.16496 C1755.58622,1092.10667 1772.68722,1075.02578 1793.74588,1075.02578 C1814.82897,1075.02578 1831.90554,1092.10667 1831.90554,1113.16496 C1831.90554,1134.22326 1814.82897,1151.27974 1793.74588,1151.27974 Z M1335.7811,1064.92366 C1314.69801,1064.92366 1297.59701,1047.84277 1297.59701,1026.78448 C1297.59701,1005.75058 1314.69801,988.669696 1335.7811,988.669696 C1356.86419,988.669696 1373.94076,1005.75058 1373.94076,1026.78448 C1373.94076,1047.84277 1356.86419,1064.92366 1335.7811,1064.92366 Z M877.791887,1073.63491 C856.708797,1073.63491 839.632227,1056.55402 839.632227,1035.49573 C839.632227,1014.43744 856.708797,997.380949 877.791887,997.380949 C898.874977,997.380949 915.951547,1014.43744 915.951547,1035.49573 C915.951547,1056.55402 898.874977,1073.63491 877.791887,1073.63491 Z M725.128817,1259.08455 C704.045727,1259.08455 686.969157,1242.02806 686.969157,1220.96977 C686.969157,1199.91147 704.045727,1182.85499 725.128817,1182.85499 C746.211907,1182.85499 763.312907,1199.91147 763.312907,1220.96977 C763.312907,1242.02806 746.211907,1259.08455 725.128817,1259.08455 Z M457.986767,1165.26167 C457.986767,1186.29556 440.885767,1203.37645 419.827107,1203.37645 C398.744017,1203.37645 381.643017,1186.29556 381.643017,1165.26167 L381.643017,1114.31182 C381.643017,1093.25353 398.744017,1076.19704 419.827107,1076.19704 C440.885767,1076.19704 457.986767,1093.25353 457.986767,1114.31182 L457.986767,1165.26167 Z M267.164037,1015.7307 C246.080947,1015.7307 229.004377,998.649815 229.004377,977.615922 C229.004377,956.557628 246.080947,939.476741 267.164037,939.476741 C288.222697,939.476741 305.323697,956.557628 305.323697,977.615922 C305.323697,998.649815 288.222697,1015.7307 267.164037,1015.7307 Z M114.500967,1103.03844 C93.417877,1103.03844 76.341307,1085.98195 76.341307,1064.92366 C76.341307,1043.86536 93.417877,1026.78448 114.500967,1026.78448 C135.559627,1026.78448 152.660627,1043.86536 152.660627,1064.92366 C152.660627,1085.98195 135.559627,1103.03844 114.500967,1103.03844 Z M-0.002443,0.906376801 L-0.002443,975.248999 L-0.002443,1359.64217 L-0.002443,1385.77593 C-0.002443,1406.83422 17.098557,1423.89071 38.181647,1423.89071 C59.240307,1423.89071 76.341307,1406.83422 76.341307,1385.77593 L76.341307,1359.64217 L76.341307,1218.65165 C76.341307,1197.59335 93.417877,1180.53687 114.500967,1180.53687 C135.559627,1180.53687 152.660627,1197.59335 152.660627,1218.65165 L152.660627,1259.08455 L152.660627,1385.45871 L152.660627,1457.24724 L152.660627,1561.80667 C152.660627,1582.84057 169.737197,1599.92145 190.820287,1599.92145 C211.903377,1599.92145 229.004377,1582.84057 229.004377,1561.80667 L229.004377,1457.24724 L229.004377,1385.45871 L229.004377,1259.08455 L229.004377,1151.27974 L229.004377,1073.63491 C229.004377,1052.57662 246.080947,1035.49573 267.164037,1035.49573 C288.222697,1035.49573 305.323697,1052.57662 305.323697,1073.63491 L305.323697,1247.07912 L305.323697,1359.64217 L308.010997,1359.64217 C306.325327,1363.93679 305.323697,1368.59744 305.323697,1373.47769 L305.323697,1452.34259 C305.323697,1473.42528 322.400267,1490.48177 343.483357,1490.48177 C364.566447,1490.48177 381.643017,1473.42528 381.643017,1452.34259 L381.643017,1373.47769 C381.643017,1368.59744 380.641387,1363.93679 378.955717,1359.64217 L381.643017,1359.64217 L381.643017,1269.01586 C381.643017,1247.93317 398.744017,1230.87668 419.827107,1230.87668 C440.885767,1230.87668 457.986767,1247.93317 457.986767,1269.01586 L457.986767,1286.43837 L457.986767,1325.04117 C457.986767,1346.09947 475.063337,1363.15595 496.146427,1363.15595 C517.229517,1363.15595 534.306087,1346.09947 534.306087,1325.04117 L534.306087,1286.43837 L534.306087,1269.01586 L534.306087,1103.03844 C534.306087,1081.98014 551.407087,1064.92366 572.490177,1064.92366 C593.548837,1064.92366 610.625407,1081.98014 610.649837,1103.01404 L610.649837,1452.34259 C610.649837,1473.42528 627.726407,1490.48177 648.809497,1490.48177 C669.892587,1490.48177 686.969157,1473.42528 686.969157,1452.34259 L686.969157,1359.64217 L686.969157,1346.39228 C686.969157,1325.35839 704.045727,1308.3019 725.128817,1308.3019 C746.211907,1308.3019 763.312907,1325.35839 763.312907,1346.39228 L763.312907,1359.64217 L763.312907,1383.55541 C763.312907,1404.61371 780.389477,1421.67019 801.472567,1421.67019 C822.555657,1421.67019 839.632227,1404.61371 839.632227,1383.55541 L839.632227,1359.64217 L839.632227,1151.20654 C839.632227,1130.14825 856.708797,1113.09176 877.791887,1113.09176 C898.874977,1113.09176 915.951547,1130.14825 915.951547,1151.20654 L915.951547,1183.90424 L915.951547,1310.27841 L915.951547,1359.64217 L915.951547,1426.23323 C915.951547,1447.26712 933.052547,1464.34801 954.135637,1464.34801 C975.218727,1464.34801 992.295297,1447.26712 992.295297,1426.23323 L992.295297,1359.64217 L992.295297,1310.27841 L992.295297,1183.90424 L992.295297,1073.63491 C992.295297,1052.57662 1009.37187,1035.49573 1030.45496,1035.49573 C1051.53805,1035.49573 1068.61462,1052.57662 1068.61462,1073.63491 L1068.61462,1090.15457 L1068.61462,1286.43837 L1068.61462,1339.1207 C1068.61462,1360.179 1085.71562,1377.23548 1106.79871,1377.23548 C1127.8818,1377.23548 1144.95837,1360.179 1144.95837,1339.1207 L1144.95837,1286.43837 L1144.95837,1182.97699 C1144.95837,1161.9187 1162.03494,1144.83781 1183.11803,1144.83781 C1204.20112,1144.83781 1221.27769,1161.9187 1221.27769,1182.97699 L1221.27769,1237.63583 L1221.66857,1237.63583 C1221.54642,1238.9291 1221.27769,1240.17356 1221.27769,1241.49123 L1221.27769,1247.07912 C1221.27769,1268.13742 1238.37869,1285.2183 1259.43735,1285.2183 C1280.52044,1285.2183 1297.59701,1268.13742 1297.59701,1247.07912 L1297.59701,1241.49123 C1297.59701,1240.17356 1297.37714,1238.9291 1297.23056,1237.63583 L1297.59701,1237.63583 L1297.59701,1122.80347 C1297.59701,1101.76957 1314.69801,1084.68869 1335.7811,1084.68869 C1356.86419,1084.68869 1373.94076,1101.76957 1373.94076,1122.80347 L1373.94076,1234.26846 L1373.94076,1359.64217 L1374.03848,1359.64217 C1374.03848,1359.98379 1373.94076,1360.32541 1373.94076,1360.64262 L1373.94076,1452.34259 C1373.94076,1473.42528 1391.04176,1490.48177 1412.12485,1490.48177 C1433.18351,1490.48177 1450.26008,1473.42528 1450.26008,1452.34259 L1450.26008,1360.64262 C1450.26008,1360.32541 1450.16236,1359.98379 1450.16236,1359.64217 L1450.26008,1359.64217 L1450.26008,1234.26846 L1450.26008,1182.97699 C1450.26008,1161.9187 1467.36108,1144.83781 1488.44417,1144.83781 C1509.50283,1144.83781 1526.5794,1161.9187 1526.5794,1182.97699 L1526.5794,1195.88526 L1526.5794,1322.25943 L1526.5794,1359.64217 L1526.5794,1533.33039 C1526.5794,1554.38869 1543.70483,1571.44517 1564.76349,1571.44517 C1585.84658,1571.44517 1602.92315,1554.38869 1602.92315,1533.33039 L1602.92315,1359.64217 L1602.92315,1322.25943 L1602.92315,1195.88526 L1602.92315,1122.80347 L1602.92315,1103.03844 C1602.92315,1081.98014 1620.02415,1064.92366 1641.10724,1064.92366 C1662.1659,1064.92366 1679.2669,1081.98014 1679.2669,1103.03844 L1679.2669,1218.65165 L1679.2669,1262.0371 L1679.2669,1297.46774 C1679.2669,1318.52603 1696.3679,1335.58252 1717.42656,1335.58252 C1738.48522,1335.58252 1755.58622,1318.52603 1755.58622,1297.46774 L1755.58622,1262.0371 L1755.58622,1259.08455 C1755.58622,1238.05065 1772.68722,1220.96977 1793.74588,1220.96977 C1814.82897,1220.96977 1831.90554,1238.05065 1831.90554,1259.08455 L1831.90554,1385.45871 L1831.90554,1408.44471 L1831.90554,1436.14015 C1831.90554,1457.17404 1849.00654,1474.27933 1870.08963,1474.27933 C1891.17272,1474.27933 1908.24929,1457.17404 1908.24929,1436.14015 L1908.24929,1408.44471 L1908.24929,1385.45871 L1908.24929,1259.08455 L1908.24929,1151.20654 C1908.24929,1130.14825 1925.35029,1113.09176 1946.43338,1113.09176 C1967.49204,1113.09176 1984.56861,1130.14825 1984.56861,1151.20654 L1984.56861,1359.64217 L1984.56861,1360.69143 C1984.56861,1381.77412 2001.66961,1398.83061 2022.7527,1398.83061 C2043.81136,1398.83061 2060.88793,1381.77412 2060.88793,1360.69143 L2060.88793,1359.64217 L2060.88793,1346.39228 C2060.88793,1325.35839 2078.01336,1308.3019 2099.07202,1308.3019 C2120.15511,1308.3019 2137.23168,1325.35839 2137.23168,1346.39228 L2137.23168,1359.64217 L2137.23168,1450.36608 C2137.23168,1471.39998 2154.33268,1488.50527 2175.41577,1488.50527 C2196.47443,1488.50527 2213.57543,1471.39998 2213.57543,1450.36608 L2213.57543,1359.64217 L2213.57543,1218.65165 L2213.57543,1182.97699 C2213.57543,1161.9187 2230.67643,1144.83781 2251.73509,1144.83781 C2272.79375,1144.83781 2289.89475,1161.9187 2289.89475,1182.97699 L2289.89475,1316.98875 L2289.89475,1359.64217 L2289.89475,1402.29559 C2289.89475,1423.37828 2306.99575,1440.43477 2328.05441,1440.43477 C2349.1375,1440.43477 2366.2385,1423.37828 2366.2385,1402.29559 L2366.2385,1359.64217 L2366.2385,1316.98875 L2366.2385,1269.01586 C2366.2385,1247.93317 2383.31507,1230.87668 2404.39816,1230.87668 C2425.48125,1230.87668 2442.58225,1247.93317 2442.58225,1269.01586 L2442.58225,1359.64217 L2442.99756,1359.64217 L2442.99756,0.906376801 L-0.002443,0.906376801 Z" id="Fill-38" fill="#FFFFFF" mask="url(#mask-2)"></path>
        </g>
        <path d="M1756.31917,1629.83217 L1756.31917,1425.61344 C1756.31917,1404.69655 1739.06565,1387.73494 1717.81917,1387.73494 C1696.57269,1387.73494 1679.31917,1404.69655 1679.31917,1425.61344 L1679.31917,1629.83217 C1679.31917,1650.77333 1696.57269,1667.73494 1717.81917,1667.73494 C1739.06565,1667.73494 1756.31917,1650.77333 1756.31917,1629.83217 Z" id="Fill-41" fill="#EFEFF4"></path>
      </g>
    </g>
  </g>
</svg>
