<?xml version="1.0" encoding="UTF-8"?>
<svg id="Layer_1" data-name="Layer 1" xmlns="http://www.w3.org/2000/svg" width="1025" height="999" xmlns:xlink="http://www.w3.org/1999/xlink" viewBox="0 0 1025 999">
  <defs>
    <mask id="mask" x="-256.47" y="-1544.68" width="2858.13" height="2858.14" maskUnits="userSpaceOnUse">
      <g id="mask-2">
        <polygon id="path-1" points="874.21 -1544.68 2601.67 182.78 1470.99 1313.46 -256.47 -414 874.21 -1544.68" fill="#fff" fill-rule="evenodd"/>
      </g>
    </mask>
  </defs>
  <path id="Fill-3" d="m752.27,521.27l-73.91,73.91c-14.92,14.92-14.85,39.22.19,54.26s39.34,15.11,54.26.19l73.91-73.91c14.92-14.92,14.84-39.24-.19-54.26s-39.34-15.11-54.26-.19Z" fill="#fff" opacity=".35"/>
  <path id="Fill-7" d="m197.46-5.41l-42.29,42.29c-14.87,14.87-14.76,39.12.28,54.16s39.3,15.15,54.16.28l42.29-42.29c14.88-14.88,14.76-39.12-.28-54.16s-39.28-15.17-54.16-.28Z" fill="#fff" opacity=".35"/>
  <path id="Fill-9" d="m811.46,890.59l-42.3,42.3c-14.87,14.87-14.73,39.13.3,54.15s39.28,15.17,54.15.3l42.3-42.3c14.87-14.87,14.74-39.14-.28-54.17s-39.3-15.15-54.17-.28Z" fill="#fff" opacity=".35"/>
  <path id="Fill-16" d="m57.33,136.22c-15.04,15.04-15.05,39.41,0,54.46s39.42,15.03,54.46,0,15.03-39.4,0-54.44-39.4-15.04-54.44,0Z" fill="#fff" opacity=".35"/>
  <path id="Fill-18" d="m588.32,685.23c-15.04,15.04-15.04,39.41,0,54.45s39.41,15.04,54.45,0,15.02-39.42,0-54.45-39.41-15.04-54.45,0Z" fill="#fff" opacity=".35"/>
  <path id="Fill-24" d="m726.38,328.17l-156.13,156.13c-14.88,14.88-14.74,39.14.28,54.16s39.28,15.17,54.16.28l156.13-156.13c14.87-14.87,14.76-39.12-.28-54.16s-39.3-15.15-54.16-.28Z" fill="#fff" opacity=".35"/>
  <path id="Fill-28" d="m171.61-193.07L11.04-32.49C-3.79-17.67-3.63,6.54,11.41,21.58s39.25,15.2,54.07.38l160.57-160.57c14.82-14.82,14.65-39.01-.39-54.05s-39.23-15.22-54.05-.39Z" fill="#fff" opacity=".35"/>
  <path id="Fill-30" d="m343.77,61.78l-36.91,36.91c-15,15-14.97,39.34.07,54.38s39.38,15.07,54.38.07l36.91-36.91c15-15,14.97-39.34-.07-54.38s-39.38-15.07-54.38-.07Z" fill="#fff" opacity=".35"/>
  <path id="Fill-32" d="m593.93,248.61l-25.23,25.23c-15.1,15.1-15.15,39.52-.11,54.56s39.46,14.99,54.56-.11l25.23-25.23c15.1-15.1,15.15-39.52.11-54.56s-39.46-14.99-54.56.11Z" fill="#fff" opacity=".35"/>
  <g id="Group-40" opacity=".35">
    <g mask="url(#mask)">
      <path id="Fill-38" d="m1730.37,783.59c-14.89-14.89-14.9-39.06-.03-53.93s39.06-14.88,53.95.01,14.9,39.06.01,53.95-39.04,14.86-53.93-.03Zm-249.12,33.23c-14.89-14.89-14.92-39.08-.05-53.95s39.06-14.84,53.95.05,14.92,39.04.03,53.93-39.03,14.88-53.93-.03Zm69.16-231.1c-14.89,14.89-39.03,14.88-53.92-.01s-14.94-39.06-.05-53.95l2.52-2.52,33.49-33.49c14.89-14.89,39.04-14.86,53.95.05s14.9,39.03.01,53.92l-36.01,36.01Zm-221.27-48.59c-14.89-14.89-14.92-39.04-.03-53.93s39.06-14.88,53.95.01,14.9,39.06.01,53.95-39.03,14.88-53.93-.03Zm-262.77-384.89c-14.91-14.91-14.92-39.08-.03-53.97s39.04-14.86,53.95.05,14.9,39.06.03,53.93-39.04,14.89-53.95-.01Zm-330.01-317.69c-14.91-14.91-14.91-39.06-.01-53.95s39.03-14.88,53.93.03,14.92,39.04.03,53.93-39.04,14.89-53.95-.01Zm-239.08,23.18c-14.91-14.91-14.92-39.04-.03-53.93s39.03-14.88,53.93.03,14.94,39.06.05,53.95-39.04,14.86-53.95-.05Zm-122.56-255.24c-14.87,14.87-39.04,14.86-53.93-.03s-14.92-39.08-.05-53.95l36.03-36.03c14.89-14.89,39.04-14.86,53.95.05s14.92,39.04.03,53.93l-36.03,36.03Zm-29.2-240.67c-14.91-14.91-14.9-39.06-.03-53.93s39.04-14.89,53.95.01c14.89,14.89,14.9,39.06.01,53.95s-39.04,14.86-53.93-.03Zm-169.68-46.21c-14.91-14.91-14.92-39.04-.03-53.93s39.04-14.89,53.95.01,14.9,39.06.01,53.95-39.04,14.86-53.93-.03Zm698.36-860.29L185.24-855.71-86.57-583.91l-18.48,18.48c-14.89,14.89-14.86,39.04.05,53.95,14.89,14.89,39.04,14.92,53.93.03l18.48-18.48,99.7-99.7c14.89-14.89,39.03-14.88,53.93.03s14.92,39.04.03,53.93l-28.59,28.59L3.13-457.7l-50.76,50.76-73.93,73.93c-14.87,14.87-14.88,39.03.03,53.93,14.91,14.91,39.08,14.92,53.95.05L6.35-352.96l50.76-50.76,89.36-89.36,76.23-76.23,54.9-54.9c14.89-14.89,39.04-14.89,53.95.01,14.89,14.89,14.9,39.06.01,53.95l-122.64,122.64-79.59,79.59,1.9,1.9c-4.23,1.84-8.23,4.43-11.68,7.88l-55.77,55.77c-14.91,14.91-14.89,39.04.01,53.95s39.04,14.92,53.95.01l55.77-55.77c3.45-3.45,6.04-7.45,7.88-11.68l1.9,1.9,64.08-64.08c14.91-14.91,39.06-14.88,53.97.03s14.92,39.04.01,53.95l-12.32,12.32-27.3,27.3c-14.89,14.89-14.88,39.03.03,53.93s39.04,14.92,53.93.03l27.3-27.3,12.32-12.32,117.36-117.36c14.89-14.89,39.04-14.86,53.95.05,14.89,14.89,14.91,39.03.05,53.92l-247.01,247.01c-14.91,14.91-14.89,39.04.01,53.95s39.04,14.92,53.95.01l65.55-65.55,9.37-9.37c14.87-14.87,39.01-14.86,53.92.05s14.94,39.06.07,53.93l-9.37,9.37-16.91,16.91c-14.89,14.89-14.88,39.03.03,53.93s39.04,14.92,53.93.03l16.91-16.91,147.39-147.39c14.89-14.89,39.03-14.88,53.93.03s14.92,39.04.03,53.93l-23.12,23.12-89.36,89.36-34.91,34.91-47.09,47.09c-14.87,14.87-14.86,39.04.05,53.95,14.91,14.91,39.06,14.9,53.93.03l47.09-47.09,34.91-34.91L739.36-6.51l77.97-77.97c14.89-14.89,39.04-14.89,53.95.01s14.9,39.06.01,53.95l-11.68,11.68-138.79,138.79-37.25,37.25c-14.89,14.89-14.86,39.04.05,53.95,14.91,14.91,39.04,14.92,53.93.03l37.25-37.25,73.16-73.16c14.89-14.89,39.04-14.89,53.95.01s14.9,39.06.01,53.95l-38.65,38.65.28.28c-1,.83-2.07,1.52-3,2.45l-3.95,3.95c-14.89,14.89-14.88,39.06.01,53.95s39.06,14.91,53.95.01l3.95-3.95c.93-.93,1.66-1.97,2.47-2.99l.26.26,81.2-81.2c14.87-14.87,39.04-14.86,53.95.05s14.91,39.06.03,53.93l-78.82,78.82-88.65,88.65.07.07c-.24.24-.55.41-.78.64l-64.84,64.84c-14.91,14.91-14.88,39.06.03,53.97s39.03,14.9,53.93,0l64.84-64.84c.22-.22.4-.53.64-.78l.07.07,88.65-88.65,36.27-36.27c14.89-14.89,39.06-14.88,53.97.03s14.89,39.04,0,53.93l-9.13,9.13-89.36,89.36-26.43,26.43-122.82,122.82c-14.89,14.89-14.84,39.06.05,53.95s39.04,14.92,53.93.03l122.82-122.82,26.43-26.43,89.36-89.36,51.68-51.68,13.98-13.98c14.89-14.89,39.04-14.86,53.95.05s14.92,39.04.03,53.93l-81.75,81.75-30.68,30.68-25.05,25.05c-14.89,14.89-14.86,39.04.03,53.93s39.04,14.92,53.93.03l25.05-25.05,2.09-2.09c14.87-14.87,39.04-14.86,53.93.03s14.9,39.06.03,53.93l-89.36,89.36-16.25,16.25-19.58,19.58c-14.87,14.87-14.88,39.06.03,53.97s39.08,14.89,53.95.01l19.58-19.58,16.25-16.25,89.36-89.36,76.28-76.28c14.89-14.89,39.04-14.86,53.95.05s14.91,39.03.01,53.92l-147.39,147.39-.74.74c-14.91,14.91-14.88,39.06.03,53.97s39.03,14.91,53.93,0l.74-.74,9.37-9.37c14.87-14.87,39.04-14.82,53.93.07s14.92,39.04.05,53.92l-9.37,9.37-64.15,64.15c-14.87,14.87-14.88,39.06.03,53.97s39.08,14.89,53.95.01l64.15-64.15,99.7-99.7,25.23-25.23c14.89-14.89,39.06-14.88,53.95.01s14.9,39.06.01,53.95l-94.76,94.76-30.16,30.16-30.16,30.16c-14.91,14.91-14.88,39.06.01,53.95s39.06,14.94,53.97.03l30.16-30.16,30.16-30.16,33.92-33.92c14.91-14.91,39.04-14.89,53.95.01s14.94,39.06.03,53.97l-64.08,64.08.29.29,960.77-960.77L874.21-1544.68Z" fill="#fff"/>
    </g>
  </g>
  <path id="Fill-41" d="m964.57,848.37l144.4-144.4c14.79-14.79,14.58-38.98-.44-54.01s-39.22-15.23-54.01-.44l-144.4,144.4c-14.81,14.81-14.6,39,.42,54.02s39.22,15.23,54.02.42Z" fill="#fff" opacity=".35"/>
</svg>